<svg xmlns="http://www.w3.org/2000/svg" viewBox="0 0 64 64" role="img" aria-label="Trusty Squire">
  <!-- Sanitised connector mark: a shield holding an acorn. -->
  <path d="M32 4 56 12v18c0 15-10 25-24 30C18 55 8 45 8 30V12Z" fill="#1c1c1e" stroke="#3a3a3d" stroke-width="2"/>
  <path d="M32 9 51 15.5V30c0 12-8 20.5-19 25C21 50.5 13 42 13 30V15.5Z" fill="none" stroke="#d7af5f" stroke-width="2"/>
  <path d="M32 20c5 0 9 3.4 9 8.4 0 6.2-4.2 11.2-9 15.6-4.8-4.4-9-9.4-9-15.6 0-5 4-8.4 9-8.4Z" fill="#d7af5f"/>
  <path d="M32 20c-3.2 0-5.8 1.2-7.4 3.1 1.6-1 3.8-1.4 5.4-.6 2 .9 2.6 2.9 2 4.9" fill="none" stroke="#1c1c1e" stroke-width="1.6" stroke-linecap="round"/>
</svg>
